<svg width="1392" height="348" viewBox="0 0 1392 348" fill="none" xmlns="http://www.w3.org/2000/svg">
<path d="M805.953 94.0713C834.588 90.8264 870.088 100.728 892.396 119.309C944.677 162.857 949.734 254.637 906.717 306.19C885.007 332.211 856.495 343.846 823.271 346.936C795.54 350.368 756.506 339.616 735.259 321.519C683.779 277.682 682.338 184.185 724.887 133.923C746.8 108.031 772.974 97.0802 805.953 94.0713ZM823.149 308.694C874.146 301.492 896.453 266.496 896.365 216.529C896.277 166.616 861.116 126.615 809.175 132.156C755.432 135.245 730.344 182.104 734.117 231.666C738.168 284.886 769.76 311.976 822.741 308.721C822.877 308.713 823.013 308.704 823.149 308.694Z" fill="white"/>
<path d="M469.694 97.3007C473.92 97.0111 478.079 96.952 482.316 96.9704C515.868 97.1185 549.428 96.7801 582.978 97.09C591.279 97.1661 599.506 98.5601 607.588 100.255C633.781 105.748 654.708 125.212 658.309 152.296C662.347 182.763 649.235 203.84 622.13 216.872C625.826 218.331 629.421 219.783 633.027 221.463C666.198 236.914 672.081 274.891 656.792 305.896C644.689 325.727 625.767 336.923 602.971 340.959C573.317 346.208 541.7 342.938 511.592 343.889C498.858 344.292 485.495 343.801 472.771 343.552C469.108 343.462 466.304 341.451 464.068 338.636C462.027 328.141 462.794 295.878 462.792 283.899L462.791 128.466C462.793 121.887 462.741 115.274 462.874 108.69C463.003 102.381 464.596 100.658 469.694 97.3007ZM612.714 294.369C621.536 285.486 624.77 277.863 624.921 265.294C625.439 222.262 572.124 228.867 543.14 228.45C529.758 228.257 515.916 228.329 502.575 228.536L502.239 228.542L502.261 305.681L542.08 305.682C561.262 305.71 598.063 307.93 612.714 294.369ZM502.267 209.327L542.391 209.394C563.448 209.413 589.971 211.58 607.292 197.835C615.652 189.672 619.069 181.817 619.246 170.246C619.711 140.033 591.961 134.694 568.298 134.516L502.238 134.599L502.267 209.327Z" fill="white"/>
<path d="M983.983 97.2346C1001.34 96.1396 1022.45 96.773 1040.09 96.9797C1082.95 97.482 1142.63 89.5507 1167.27 133.543C1175.53 148.291 1177.4 171.382 1172.41 187.496C1166.24 208.13 1150.7 219.359 1132.59 228.971C1163.99 243.388 1166.87 275.803 1174.27 306.097C1177.29 318.45 1180.03 331.413 1182.38 343.878C1168.61 343.71 1154.58 343.845 1140.77 343.846C1139.2 336.964 1137.57 330.032 1136.29 323.095C1130.95 302.018 1127.23 268.022 1112.81 251.578C1102 239.252 1074.1 241.205 1058.37 241.202L1016.08 241.228L1016.06 336.167C1010.28 345.823 1005.77 343.595 995.64 344.028C987.273 344.385 977.241 344.052 976.84 333.215C976.079 312.695 976.548 292.059 976.588 271.504L976.595 126.664C976.588 120.103 976.276 111.203 977.112 104.774C977.526 101.578 981.373 98.8339 983.983 97.2346ZM1016.11 221.81L1054.96 221.825C1077.99 221.872 1103.83 223.859 1122.56 208.143C1132.28 198.397 1135.08 189.907 1135.36 176.288C1135.55 166.098 1133.09 155.768 1125.53 148.403C1108.94 132.269 1077.24 134.473 1055.56 134.502L1016.1 134.573L1016.11 221.81Z" fill="white"/>
<path d="M302.505 97.2364C309.714 96.9176 326.343 95.4828 330.254 103.423C338.563 120.294 345.4 138.796 352.534 156.331L409.436 296.221C414.593 308.922 422.153 325.121 425.19 338.167C427.152 346.597 395.226 343.705 390.688 343.04C382.526 336.91 379.621 325.548 375.893 316.176L361.607 280.122L261.72 280.097C261.582 280.535 261.439 280.972 261.292 281.408C255.194 299.6 245.869 319.383 238.662 337.246C235.867 344.172 228.871 343.939 222.401 343.728C215.789 343.513 201.824 346.074 198.292 338.673C199.008 334.745 200.432 330.332 201.931 326.628C222.334 276.195 242.883 225.791 263.387 175.402L282.183 129.197C287.134 116.977 289.906 102.713 302.505 97.2364ZM269.494 260.899L353.432 260.866C345.091 237.37 333.76 212.638 324.924 189.082C323.419 185.068 313.105 158.939 311.588 156.804C297.903 190.951 283.913 227.247 269.494 260.899Z" fill="white"/>
<path d="M1392 334.68C1387.14 345.56 1381.59 343.815 1370.83 343.837L1272.33 343.856C1256.71 343.86 1240.95 344.106 1225.37 343.536C1221.3 342.81 1217.72 341.114 1217.07 336.92C1215.26 325.314 1215.95 313.438 1215.95 301.67L1215.93 250.531C1215.92 204.684 1215.89 158.811 1215.95 112.965C1215.95 107.885 1215.68 102.929 1219.71 99.3577C1221.29 97.9568 1227.8 97.1222 1230.08 97.0923C1251.81 96.8047 1273.72 96.9951 1295.45 96.9699C1322.44 96.938 1349.34 97.0957 1376.33 96.8652C1379.72 96.87 1385.05 97.9222 1387.34 100.742C1392.07 106.585 1390.23 120.519 1390.02 127.692C1387.96 130.614 1384.91 134.309 1380.98 134.419C1368.22 134.778 1355.38 134.592 1342.6 134.584L1255.25 134.612L1255.29 209.418L1323.9 209.378C1335.7 209.373 1347.49 209.262 1359.31 209.506C1365.26 209.628 1366.89 212.195 1367.32 217.957C1367.69 222.986 1366.78 228.283 1360.57 228.413C1349.55 228.644 1338.46 228.521 1327.42 228.509L1255.25 228.563L1255.28 305.693C1273.73 305.674 1378.08 304.035 1384.56 306.567C1388.76 308.209 1390.26 311.218 1392 315.183V334.68Z" fill="white"/>
<path d="M0 106.754C3.67219 95.0523 9.96877 97.2483 20.2438 96.8589C33.6188 96.3525 39.8893 97.5182 39.5749 112.456C39.7636 133.914 39.6913 155.316 39.6877 176.745L39.6828 305.703L122.002 305.654C134.408 305.657 146.813 305.589 159.233 305.716C162.852 305.889 167.426 308.228 167.19 312.291C166.813 318.756 157.599 342.747 150.624 343.036C105.895 344.887 60.7469 343.393 15.938 343.807C7.51123 343.885 1.94164 342.973 0 333.637V106.754Z" fill="white"/>
<path d="M1329.43 0H1332.83C1337.75 3.57429 1348.51 13.3064 1350.38 18.9955C1350.71 20.0216 1350.57 20.9635 1350.06 21.8853C1347.47 26.6064 1298.17 69.2303 1290.68 75.0817C1288.88 76.4934 1287 77.9146 1284.77 78.5542C1280.86 77.9547 1276.91 72.8652 1274.49 69.9813C1272.1 67.1278 1273.68 63.3623 1275.81 60.971C1288.06 47.2326 1299.92 33.1726 1311.97 19.2519C1317.17 13.3156 1323.54 4.95647 1329.43 0Z" fill="white"/>
</svg>
