<svg width="24" height="24" viewBox="0 0 24 24" fill="none" xmlns="http://www.w3.org/2000/svg">
<path d="M12 4.25C14.2142 4.25 16.5711 4.40103 18.248 4.53711C19.9675 4.67664 21.3468 6.00617 21.5146 7.73535C21.6344 8.96941 21.75 10.5376 21.75 12C21.75 13.4624 21.6344 15.0306 21.5146 16.2646C21.3468 17.9938 19.9675 19.3234 18.248 19.4629C16.5711 19.599 14.2142 19.75 12 19.75C9.7858 19.75 7.42886 19.599 5.75195 19.4629C4.03255 19.3234 2.65319 17.9938 2.48535 16.2646C2.36557 15.0306 2.25 13.4624 2.25 12C2.25 10.5376 2.36557 8.96941 2.48535 7.73535C2.65319 6.00617 4.03255 4.67664 5.75195 4.53711C7.42886 4.40103 9.7858 4.25 12 4.25ZM10.9004 9.05566C10.5004 8.82472 10 9.11332 10 9.5752V14.4248C10 14.8867 10.5004 15.1753 10.9004 14.9443L15.0996 12.5195C15.4996 12.2886 15.4996 11.7114 15.0996 11.4805L10.9004 9.05566Z" fill="#1B1918"/>
</svg>
