<svg width="24" height="24" viewBox="0 0 24 24" fill="none" xmlns="http://www.w3.org/2000/svg">
<path d="M12 2C17.5228 2 22 6.47715 22 12C22 17.0994 18.1827 21.3036 13.25 21.9189V14.75H14.5C15.1904 14.75 15.75 14.1904 15.75 13.5C15.75 12.8096 15.1904 12.25 14.5 12.25H13.25V10C13.25 9.58579 13.5858 9.25 14 9.25H14.5C15.1904 9.25 15.75 8.69036 15.75 8C15.75 7.30964 15.1904 6.75 14.5 6.75H14C12.2051 6.75 10.75 8.20507 10.75 10V12.25H9.5C8.80964 12.25 8.25 12.8096 8.25 13.5C8.25 14.1904 8.80964 14.75 9.5 14.75H10.75V21.9189C5.81733 21.3036 2 17.0994 2 12C2 6.47715 6.47715 2 12 2Z" fill="#1B1918"/>
</svg>
