<svg width="16" height="16" viewBox="0 0 16 16" fill="none" xmlns="http://www.w3.org/2000/svg">
<path d="M7.33333 14V8.68333C6.62222 8.68333 5.93889 8.54722 5.28333 8.275C4.62778 8.00278 4.05 7.61667 3.55 7.11667C3.05 6.61667 2.66667 6.03889 2.4 5.38333C2.13333 4.72778 2 4.04444 2 3.33333V2H3.33333C4.03333 2 4.71111 2.13611 5.36667 2.40833C6.02222 2.68056 6.6 3.06667 7.1 3.56667C7.44444 3.91111 7.73056 4.28889 7.95833 4.7C8.18611 5.11111 8.36111 5.55 8.48333 6.01667C8.53889 5.93889 8.6 5.86389 8.66667 5.79167C8.73333 5.71944 8.80556 5.64444 8.88333 5.56667C9.38333 5.06667 9.96111 4.68056 10.6167 4.40833C11.2722 4.13611 11.9556 4 12.6667 4H14V5.33333C14 6.04444 13.8639 6.72778 13.5917 7.38333C13.3194 8.03889 12.9333 8.61667 12.4333 9.11667C11.9333 9.61667 11.3583 10 10.7083 10.2667C10.0583 10.5333 9.37778 10.6667 8.66667 10.6667V14H7.33333ZM7.33333 7.33333C7.33333 6.8 7.23056 6.29167 7.025 5.80833C6.81944 5.325 6.52778 4.89444 6.15 4.51667C5.77222 4.13889 5.34167 3.84722 4.85833 3.64167C4.375 3.43611 3.86667 3.33333 3.33333 3.33333C3.33333 3.86667 3.43333 4.37778 3.63333 4.86667C3.83333 5.35556 4.12222 5.78889 4.5 6.16667C4.87778 6.54444 5.31111 6.83333 5.8 7.03333C6.28889 7.23333 6.8 7.33333 7.33333 7.33333ZM8.66667 9.33333C9.2 9.33333 9.70833 9.23333 10.1917 9.03333C10.675 8.83333 11.1056 8.54444 11.4833 8.16667C11.8611 7.78889 12.1528 7.35556 12.3583 6.86667C12.5639 6.37778 12.6667 5.86667 12.6667 5.33333C12.1333 5.33333 11.6222 5.43611 11.1333 5.64167C10.6444 5.84722 10.2111 6.13889 9.83333 6.51667C9.45556 6.89444 9.16667 7.325 8.96667 7.80833C8.76667 8.29167 8.66667 8.8 8.66667 9.33333Z" fill="#1B1918"/>
</svg>
