<svg width="40" height="40" viewBox="0 0 40 40" fill="none" xmlns="http://www.w3.org/2000/svg">
<circle cx="20" cy="20" r="19.5" stroke="#FB5373"/>
<path d="M12.9401 18.6678C12.8124 18.6072 12.661 18.6614 12.6002 18.7887C11.5383 21.0225 11 22.7749 11 23.9973C11 28.9615 15.0385 33 20.0026 33C24.9668 33 29.0054 28.9615 29.0054 23.9973C29.0054 19.1407 20.5673 7.58756 20.2083 7.09803C20.1122 6.96732 19.893 6.96732 19.797 7.09803C19.7696 7.13547 17.0181 10.894 14.6248 14.9962C14.5538 15.1178 14.5946 15.2739 14.7164 15.3449C14.8382 15.416 14.9943 15.3748 15.065 15.2532C17.0668 11.8227 19.3209 8.63277 20.0026 7.684C21.3188 9.51801 28.4955 19.7154 28.4955 23.9973C28.4955 28.6802 24.6855 32.49 20.0026 32.49C15.3197 32.49 11.5099 28.6802 11.5099 23.9973C11.5099 22.8512 12.0318 21.1725 13.0608 19.0075C13.1213 18.8804 13.067 18.7283 12.9401 18.6678Z" fill="#FB5373" stroke="#FB5373" stroke-width="0.5"/>
<path d="M19.3085 26.2071V21.6644C19.3085 20.2338 18.1445 19.0697 16.7138 19.0697C15.2832 19.0697 14.1191 20.2338 14.1191 21.6644V26.2071C14.1191 27.6378 15.2832 28.8018 16.7138 28.8018C18.1445 28.8018 19.3085 27.6378 19.3085 26.2071ZM14.6291 26.2071V21.6644C14.6291 20.5149 15.5643 19.5797 16.7139 19.5797C17.8635 19.5797 18.7987 20.5149 18.7987 21.6644V26.2071C18.7987 27.3566 17.8635 28.2918 16.7139 28.2918C15.5643 28.2918 14.6291 27.3566 14.6291 26.2071ZM24.3202 16.8944C24.1904 16.8397 24.0408 16.9001 23.986 17.0299L21.2536 23.4932C21.1989 23.6228 21.2594 23.7725 21.3891 23.8272C21.5202 23.8827 21.6689 23.8204 21.7233 23.6917L24.4556 17.2284C24.5104 17.0988 24.4499 16.9492 24.3202 16.8944ZM21.1623 16.7568C20.4243 16.7568 19.8237 17.4518 19.8237 18.306C19.8237 19.1603 20.4243 19.8552 21.1623 19.8552C21.9002 19.8552 22.5006 19.1603 22.5006 18.306C22.5006 17.4518 21.9002 16.7568 21.1623 16.7568ZM21.1623 19.3453C20.7054 19.3453 20.3337 18.8791 20.3337 18.306C20.3337 17.733 20.7054 17.2668 21.1623 17.2668C21.6192 17.2668 21.9907 17.733 21.9907 18.306C21.9906 18.8791 21.6192 19.3453 21.1623 19.3453ZM23.2084 22.4156C23.2084 23.2698 23.809 23.9647 24.5469 23.9647C25.2849 23.9647 25.8852 23.2698 25.8852 22.4156C25.8852 21.5614 25.2849 20.8665 24.5469 20.8665C23.8089 20.8665 23.2084 21.5614 23.2084 22.4156ZM24.547 21.3764C25.0039 21.3764 25.3754 21.8426 25.3754 22.4156C25.3754 22.9887 25.0039 23.4548 24.547 23.4548C24.0901 23.4548 23.7184 22.9887 23.7184 22.4156C23.7183 21.8426 24.09 21.3764 24.547 21.3764Z" fill="#FB5373" stroke="#FB5373" stroke-width="0.5"/>
</svg>
