<svg width="40" height="40" viewBox="0 0 40 40" fill="none" xmlns="http://www.w3.org/2000/svg">
<circle cx="20" cy="20" r="19.5" stroke="#FB5373"/>
<path d="M17.6178 24.6429C17.6178 24.8266 17.562 25.0061 17.4573 25.1588C17.3527 25.3115 17.2039 25.4305 17.0299 25.5008C16.8558 25.5711 16.6643 25.5895 16.4796 25.5536C16.2948 25.5178 16.1251 25.4294 15.9919 25.2995C15.8587 25.1696 15.768 25.0042 15.7312 24.8241C15.6945 24.644 15.7133 24.4573 15.7854 24.2876C15.8575 24.1179 15.9796 23.9729 16.1362 23.8709C16.2928 23.7688 16.477 23.7144 16.6654 23.7144C16.918 23.7144 17.1603 23.8122 17.3389 23.9863C17.5175 24.1605 17.6178 24.3967 17.6178 24.6429ZM23.3327 23.7144C23.1443 23.7144 22.9601 23.7688 22.8035 23.8709C22.6469 23.9729 22.5248 24.1179 22.4527 24.2876C22.3806 24.4573 22.3618 24.644 22.3985 24.8241C22.4353 25.0042 22.526 25.1696 22.6592 25.2995C22.7924 25.4294 22.9621 25.5178 23.1469 25.5536C23.3316 25.5895 23.5231 25.5711 23.6972 25.5008C23.8712 25.4305 24.02 25.3115 24.1246 25.1588C24.2293 25.0061 24.2852 24.8266 24.2852 24.6429C24.2852 24.3967 24.1848 24.1605 24.0062 23.9863C23.8276 23.8122 23.5853 23.7144 23.3327 23.7144ZM30 27.4286C30 28.5602 29.6465 29.6651 28.9866 30.5961C28.3267 31.527 27.3915 32.24 26.3057 32.6402C25.2199 33.0403 24.0348 33.1085 22.9082 32.8359C21.7816 32.5632 20.7668 31.9625 19.999 31.1138C19.4802 31.6814 18.8476 32.1395 18.1404 32.4598C17.4331 32.7802 16.666 32.956 15.8864 32.9765C15.1068 32.997 14.3312 32.8617 13.6072 32.579C12.8832 32.2962 12.2263 31.872 11.6768 31.3325C11.1274 30.7929 10.697 30.1494 10.4122 29.4416C10.1274 28.7338 9.99427 27.9767 10.0209 27.2168C10.0476 26.457 10.2335 25.7105 10.5672 25.0233C10.9009 24.3361 11.3754 23.7228 11.9614 23.2211C12.0764 22.2986 12.3585 21.4033 12.7948 20.577C10.5755 16.3568 9.12061 10.4477 10.6005 8.06248C10.7896 7.73384 11.0667 7.46145 11.4022 7.2744C11.7377 7.08734 12.119 6.99265 12.5055 7.00044C13.9544 7.00044 15.2664 8.32479 16.4058 10.9375C17.2047 12.7691 17.781 14.8931 18.1477 16.4937C19.3656 16.2167 20.6325 16.2167 21.8504 16.4937C22.2171 14.892 22.7933 12.7691 23.5922 10.9375C24.7316 8.32479 26.0437 7.00044 27.4926 7.00044C27.879 6.99265 28.2604 7.08734 28.5959 7.2744C28.9314 7.46145 29.2085 7.73384 29.3975 8.06248C30.8774 10.4477 29.4225 16.3568 27.2069 20.5817C27.6431 21.408 27.9253 22.3032 28.0403 23.2257C28.6573 23.748 29.1517 24.3938 29.4898 25.119C29.828 25.8442 30.002 26.6319 30 27.4286ZM22.7648 16.7618C23.761 17.1142 24.6765 17.6541 25.4591 18.3508C25.8935 18.7387 26.2839 19.1711 26.6235 19.6404C28.7522 15.3377 29.6702 10.2968 28.582 8.543C28.4783 8.35087 28.321 8.19125 28.1283 8.0826C27.9355 7.97395 27.7151 7.92069 27.4926 7.929C25.7782 7.929 24.0208 11.2219 22.7648 16.7618ZM13.3746 19.6404C13.7142 19.1711 14.1045 18.7387 14.539 18.3508C15.3216 17.6541 16.237 17.1142 17.2333 16.7618C15.9772 11.2219 14.2199 7.929 12.5055 7.929C12.2829 7.92069 12.0626 7.97395 11.8698 8.0826C11.677 8.19125 11.5197 8.35087 11.4161 8.543C10.3279 10.2968 11.2458 15.3377 13.3746 19.6404ZM29.0475 27.4286C29.0487 26.7369 28.8908 26.0538 28.5855 25.4295C28.2801 24.8052 27.8351 24.2556 27.2831 23.8212C27.2341 23.7824 27.1935 23.7345 27.1636 23.6803C27.1338 23.6261 27.1153 23.5667 27.1092 23.5054C26.9379 21.7829 26.1148 20.1842 24.8004 19.021C23.4859 17.8577 21.7743 17.2133 19.999 17.2133C18.2238 17.2133 16.5121 17.8577 15.1977 19.021C13.8832 20.1842 13.0601 21.7829 12.8888 23.5054C12.8827 23.5667 12.8643 23.6261 12.8344 23.6803C12.8046 23.7345 12.764 23.7824 12.715 23.8212C12.1998 24.2275 11.7774 24.7343 11.4746 25.3089C11.1718 25.8836 10.9954 26.5136 10.9566 27.1585C10.9178 27.8034 11.0175 28.4492 11.2493 29.0544C11.4811 29.6596 11.8399 30.211 12.3028 30.6733C12.7657 31.1356 13.3225 31.4987 13.9376 31.7392C14.5526 31.9798 15.2124 32.0925 15.8747 32.0703C16.537 32.048 17.1872 31.8913 17.7838 31.6101C18.3804 31.3289 18.9103 30.9293 19.3394 30.4371L17.7917 29.1812C17.6944 29.1024 17.6333 28.9892 17.6216 28.8664C17.61 28.7436 17.6489 28.6214 17.7298 28.5266C17.8106 28.4318 17.9268 28.3722 18.0527 28.3608C18.1786 28.3495 18.304 28.3874 18.4013 28.4662L19.999 29.7616L21.5992 28.4639C21.6473 28.4249 21.7029 28.3955 21.7627 28.3774C21.8225 28.3593 21.8854 28.3529 21.9477 28.3585C22.0101 28.3641 22.0707 28.3816 22.1261 28.4101C22.1815 28.4385 22.2306 28.4773 22.2707 28.5243C22.3107 28.5712 22.3408 28.6254 22.3594 28.6837C22.3779 28.742 22.3845 28.8033 22.3788 28.8641C22.373 28.9249 22.3551 28.984 22.3259 29.038C22.2967 29.092 22.2569 29.1399 22.2088 29.1789L20.661 30.4348C21.2927 31.1571 22.1362 31.6733 23.0781 31.9139C24.0199 32.1545 25.0148 32.1079 25.9286 31.7803C26.8425 31.4527 27.6314 30.86 28.189 30.0819C28.7467 29.3038 29.0463 28.3778 29.0475 27.4286Z" fill="#FB5373"/>
</svg>
