<svg width="40" height="40" viewBox="0 0 40 40" fill="none" xmlns="http://www.w3.org/2000/svg">
<circle cx="20" cy="20" r="19.5" stroke="#FB5373"/>
<path d="M10.1007 20H6M34 20H29.8993M20 29.8993V34M20 6V10.1007M12.3636 27.6364L10.1007 29.8993M29.8993 10.1007L27.6364 12.3636M12.3636 12.3636L10.1007 10.1007M29.8993 29.8993L27.6364 27.6364M27.6364 20C27.6364 22.0253 26.8318 23.9676 25.3997 25.3997C23.9676 26.8318 22.0253 27.6364 20 27.6364C17.9747 27.6364 16.0324 26.8318 14.6003 25.3997C13.1682 23.9676 12.3636 22.0253 12.3636 20C12.3636 17.9747 13.1682 16.0324 14.6003 14.6003C16.0324 13.1682 17.9747 12.3636 20 12.3636C22.0253 12.3636 23.9676 13.1682 25.3997 14.6003C26.8318 16.0324 27.6364 17.9747 27.6364 20Z" stroke="#FB5373" stroke-miterlimit="10" stroke-linecap="round"/>
</svg>
