<svg width="40" height="40" viewBox="0 0 40 40" fill="none" xmlns="http://www.w3.org/2000/svg">
<circle cx="20" cy="20" r="19.5" stroke="#FB5373"/>
<path d="M21.9369 27.9242C21.9369 27.9242 26.8248 28.4928 29.6174 25.7909C32.4099 23.0891 31.9755 17.3287 31.9755 17.3287C31.9755 17.3287 26.2991 16.5393 23.7621 19.0946C22.9681 19.8945 21.9369 20.8605 21.9369 23.5094V27.9242ZM21.9369 27.9242C21.9369 27.9242 15.5486 28.8071 11.1462 24.5477C6.74383 20.2883 8.2478 12.0309 8.2478 12.0309C8.2478 12.0309 14.9135 11.4164 19.3068 15.6669C21.0717 17.3746 21.9369 19.9775 21.9369 22.9902V27.9242ZM26.4999 23.5094L21.9369 27.0412M14.636 19.9775L21.539 26.9918" stroke="#FB5373" stroke-linecap="round"/>
</svg>
