<svg width="20" height="20" viewBox="0 0 20 20" fill="none" xmlns="http://www.w3.org/2000/svg">
<path fill-rule="evenodd" clip-rule="evenodd" d="M14.3254 4.81355C14.6583 5.13133 14.6706 5.65882 14.3528 5.99174L9.30033 11.2848C8.98258 11.6178 8.45508 11.63 8.12213 11.3122C7.78921 10.9944 7.77695 10.4669 8.09473 10.134L13.1472 4.84095C13.465 4.50803 13.9925 4.49576 14.3254 4.81355ZM1.50794 10.9247C1.84085 10.6068 2.36835 10.6192 2.68613 10.9521L5.02708 13.4045C5.3369 13.2352 5.73302 13.2764 6.00207 13.5333C6.33499 13.851 6.34726 14.3785 6.02947 14.7114L5.6028 15.1584C5.44555 15.3232 5.22773 15.4163 5 15.4163C4.77226 15.4163 4.55445 15.3232 4.39721 15.1584L1.48054 12.1028C1.16276 11.7699 1.17502 11.2424 1.50794 10.9247Z" fill="#F95272"/>
<path fill-rule="evenodd" clip-rule="evenodd" d="M18.4924 4.81355C18.8253 5.13133 18.8376 5.65882 18.5198 5.99174L9.76982 15.1584C9.61257 15.3232 9.39474 15.4163 9.16699 15.4163C8.93924 15.4163 8.72141 15.3232 8.56416 15.1584L5.64753 12.1028C5.32975 11.7699 5.34201 11.2424 5.67493 10.9247C6.00784 10.6068 6.53534 10.6192 6.85312 10.9521L9.16699 13.3761L17.3142 4.84095C17.632 4.50803 18.1595 4.49576 18.4924 4.81355Z" fill="#F95272"/>
</svg>
