<svg width="20" height="20" viewBox="0 0 20 20" fill="none" xmlns="http://www.w3.org/2000/svg">
<path d="M14.0337 12.3083C13.817 12.15 13.517 11.7833 13.3753 11.6083C14.367 10.2167 15.8337 7.6 15.8337 4.375C15.8337 2.75 15.217 1.875 14.167 1.875C12.8837 1.875 10.867 3.59167 10.0003 6.85C9.13366 3.59167 7.11699 1.875 5.83366 1.875C4.78366 1.875 4.16699 2.75 4.16699 4.375C4.16699 7.6 5.63366 10.2167 6.62533 11.6083C6.48366 11.7833 6.18366 12.15 5.96699 12.3083C5.55033 12.65 4.58366 13.45 4.58366 14.7917C4.58366 16.6333 6.07533 18.125 7.91699 18.125C9.20866 18.125 10.0003 17.6583 10.0003 17.6583C10.0003 17.6583 10.792 18.125 12.0837 18.125C13.9253 18.125 15.417 16.6333 15.417 14.7917C15.417 13.45 14.4503 12.65 14.0337 12.3083ZM7.79199 10.375C6.95033 9.125 5.83366 6.975 5.83366 4.375C5.83366 3.96667 5.88366 3.70833 5.93366 3.56667C6.71699 3.825 8.63366 5.825 8.75033 9.93333C8.35866 10.0333 8.05033 10.1833 7.79199 10.375ZM8.75033 14.1667C8.51699 14.1667 8.33366 13.8833 8.33366 13.5417C8.33366 13.2 8.51699 12.9167 8.75033 12.9167C8.98366 12.9167 9.16699 13.2 9.16699 13.5417C9.16699 13.8833 8.98366 14.1667 8.75033 14.1667ZM10.0003 16.4583C9.54199 16.4583 9.16699 15.8583 9.16699 15.625C9.16699 15.3917 9.54199 15.2083 10.0003 15.2083C10.4587 15.2083 10.8337 15.3917 10.8337 15.625C10.8337 15.8583 10.4587 16.4583 10.0003 16.4583ZM11.2503 14.1667C11.017 14.1667 10.8337 13.8833 10.8337 13.5417C10.8337 13.2 11.017 12.9167 11.2503 12.9167C11.4837 12.9167 11.667 13.2 11.667 13.5417C11.667 13.8833 11.4837 14.1667 11.2503 14.1667ZM11.2503 9.93333C11.367 5.825 13.2837 3.825 14.067 3.56667C14.117 3.70833 14.167 3.96667 14.167 4.375C14.167 6.975 13.0503 9.125 12.2087 10.375C11.9503 10.1833 11.642 10.0333 11.2503 9.93333Z" fill="#F95272"/>
</svg>
