<svg width="20" height="20" viewBox="0 0 20 20" fill="none" xmlns="http://www.w3.org/2000/svg">
<path d="M5.83366 16.2497C4.91699 16.2497 4.16699 16.9997 4.16699 17.9163H15.8337C15.8337 16.9997 15.0837 16.2497 14.167 16.2497H10.8337V14.583H13.3337C14.2503 14.583 15.0003 13.833 15.0003 12.9163H8.33366C6.95033 12.9163 5.83366 11.7997 5.83366 10.4163C5.83366 9.50801 6.32533 8.71634 7.05033 8.28301C6.80866 7.94134 6.66699 7.53301 6.66699 7.08301C6.66699 6.90801 6.70033 6.73301 6.74199 6.56634C5.23366 7.19134 4.16699 8.68301 4.16699 10.4163C4.16699 12.7163 6.03366 14.583 8.33366 14.583V16.2497H5.83366Z" fill="#F95272"/>
<path d="M8.80033 5.00801C9.92533 5.03301 10.8337 5.94967 10.8337 7.08301C10.8337 7.70801 10.5587 8.25801 10.1253 8.64134L10.617 9.99134L11.4003 9.70801L11.6837 10.4913L13.2503 9.92467L12.967 9.14134L13.7503 8.85801L11.467 2.58301L10.6837 2.86634L10.4003 2.08301L8.83366 2.64967L9.11699 3.43301L8.33366 3.72467L8.80033 5.00801Z" fill="#F95272"/>
<path d="M8.75033 8.33301C9.44068 8.33301 10.0003 7.77336 10.0003 7.08301C10.0003 6.39265 9.44068 5.83301 8.75033 5.83301C8.05997 5.83301 7.50033 6.39265 7.50033 7.08301C7.50033 7.77336 8.05997 8.33301 8.75033 8.33301Z" fill="#F95272"/>
</svg>
