<svg width="20" height="20" viewBox="0 0 20 20" fill="none" xmlns="http://www.w3.org/2000/svg">
<path d="M8.54167 4.57454C8.54167 3.85625 8.25633 3.16737 7.74842 2.65946C7.24051 2.15155 6.55164 1.86621 5.83334 1.86621C5.11505 1.86621 4.42617 2.15155 3.91826 2.65946C3.41035 3.16737 3.12501 3.85625 3.12501 4.57454V11.2995C2.60423 11.7879 2.22555 12.4083 2.02923 13.0947C1.83291 13.7811 1.8263 14.5079 2.01009 15.1977C2.19388 15.8876 2.56121 16.5148 3.07302 17.0125C3.58482 17.5103 4.22196 17.86 4.91667 18.0245C5.21766 18.0913 5.52505 18.1248 5.83334 18.1245C6.6272 18.1304 7.40434 17.8965 8.063 17.4533C8.72166 17.0101 9.23115 16.3783 9.52474 15.6407C9.81834 14.9031 9.88237 14.0941 9.70845 13.3195C9.53453 12.5449 9.13076 11.8408 8.55001 11.2995L8.54167 4.57454ZM7.50001 16.2829C7.1753 16.5395 6.7967 16.7193 6.3926 16.8088C5.9885 16.8983 5.56938 16.8951 5.16667 16.7995C4.67965 16.6741 4.23735 16.4151 3.88963 16.0517C3.5419 15.6884 3.30257 15.2351 3.19862 14.743C3.09466 14.251 3.1302 13.7396 3.30124 13.2667C3.47228 12.7937 3.77202 12.378 4.16667 12.0662C4.24042 12.0093 4.2999 11.936 4.3404 11.8521C4.3809 11.7682 4.40131 11.676 4.40001 11.5829V4.57454C4.40001 4.18777 4.55365 3.81684 4.82714 3.54335C5.10063 3.26986 5.47157 3.11621 5.85834 3.11621C6.24512 3.11621 6.61605 3.26986 6.88954 3.54335C7.16303 3.81684 7.31667 4.18777 7.31667 4.57454V11.5829C7.31538 11.676 7.33579 11.7682 7.37629 11.8521C7.41679 11.936 7.47626 12.0093 7.55001 12.0662C7.86757 12.3183 8.1241 12.6388 8.30043 13.0039C8.47677 13.3689 8.56835 13.7691 8.56835 14.1745C8.56835 14.58 8.47677 14.9802 8.30043 15.3452C8.1241 15.7103 7.86757 16.0308 7.55001 16.2829H7.50001ZM7.29167 14.1662C7.29167 14.553 7.13803 14.9239 6.86454 15.1974C6.59105 15.4709 6.22012 15.6245 5.83334 15.6245C5.44657 15.6245 5.07563 15.4709 4.80214 15.1974C4.52865 14.9239 4.37501 14.553 4.37501 14.1662C4.37476 13.8914 4.45307 13.6222 4.60071 13.3904C4.74836 13.1586 4.95918 12.9738 5.20834 12.8579V4.99954C5.20834 4.83378 5.27419 4.67481 5.3914 4.5576C5.50861 4.44039 5.66758 4.37454 5.83334 4.37454C5.9991 4.37454 6.15807 4.44039 6.27528 4.5576C6.39249 4.67481 6.45834 4.83378 6.45834 4.99954V12.8579C6.7075 12.9738 6.91833 13.1586 7.06597 13.3904C7.21361 13.6222 7.29192 13.8914 7.29167 14.1662ZM13.75 4.37454C13.3792 4.37454 13.0167 4.48451 12.7083 4.69054C12.4 4.89657 12.1596 5.1894 12.0177 5.53201C11.8758 5.87462 11.8387 6.25162 11.911 6.61534C11.9834 6.97905 12.162 7.31315 12.4242 7.57537C12.6864 7.83759 13.0205 8.01617 13.3842 8.08852C13.7479 8.16086 14.1249 8.12373 14.4675 7.98182C14.8102 7.8399 15.103 7.59958 15.309 7.29124C15.515 6.9829 15.625 6.62038 15.625 6.24954C15.625 5.75226 15.4275 5.27535 15.0758 4.92372C14.7242 4.57209 14.2473 4.37454 13.75 4.37454ZM13.75 6.87454C13.6264 6.87454 13.5056 6.83789 13.4028 6.76921C13.3 6.70054 13.2199 6.60293 13.1726 6.48872C13.1253 6.37452 13.1129 6.24885 13.137 6.12761C13.1611 6.00637 13.2207 5.89501 13.3081 5.8076C13.3955 5.72019 13.5068 5.66067 13.6281 5.63655C13.7493 5.61244 13.875 5.62481 13.9892 5.67212C14.1034 5.71942 14.201 5.79953 14.2697 5.90231C14.3384 6.00509 14.375 6.12593 14.375 6.24954C14.3728 6.41463 14.3063 6.57235 14.1896 6.6891C14.0728 6.80585 13.9151 6.87239 13.75 6.87454ZM15.3667 4.63288C15.2511 4.51324 15.1865 4.35339 15.1865 4.18704C15.1865 4.0207 15.2511 3.86085 15.3667 3.74121L15.9583 3.15788C16.0158 3.09891 16.0845 3.05205 16.1603 3.02005C16.2362 2.98805 16.3177 2.97157 16.4 2.97157C16.4823 2.97157 16.5638 2.98805 16.6397 3.02005C16.7155 3.05205 16.7842 3.09891 16.8417 3.15788C16.9587 3.27507 17.0245 3.43392 17.0245 3.59954C17.0245 3.76517 16.9587 3.92402 16.8417 4.04121L16.25 4.63288C16.1916 4.6898 16.1225 4.73458 16.0467 4.76462C15.9709 4.79466 15.8899 4.80936 15.8083 4.80788C15.6442 4.8082 15.4861 4.74557 15.3667 4.63288ZM12.1333 7.86621C12.2489 7.98585 12.3135 8.1457 12.3135 8.31205C12.3135 8.47839 12.2489 8.63824 12.1333 8.75788L11.5417 9.34121C11.484 9.39964 11.4152 9.44595 11.3393 9.47743C11.2635 9.50892 11.1821 9.52493 11.1 9.52455C11.0178 9.52541 10.9363 9.50961 10.8604 9.4781C10.7845 9.44659 10.7158 9.40002 10.6583 9.34121C10.5413 9.22402 10.4756 9.06517 10.4756 8.89955C10.4756 8.73392 10.5413 8.57507 10.6583 8.45788L11.25 7.86621C11.3672 7.74917 11.526 7.68343 11.6917 7.68343C11.8573 7.68343 12.0162 7.74917 12.1333 7.86621ZM10.6583 4.04121C10.5413 3.92402 10.4756 3.76517 10.4756 3.59954C10.4756 3.43392 10.5413 3.27507 10.6583 3.15788C10.7158 3.09891 10.7845 3.05205 10.8603 3.02005C10.9362 2.98805 11.0177 2.97157 11.1 2.97157C11.1823 2.97157 11.2638 2.98805 11.3397 3.02005C11.4155 3.05205 11.4842 3.09891 11.5417 3.15788L12.1333 3.74121C12.2489 3.86085 12.3135 4.0207 12.3135 4.18704C12.3135 4.35339 12.2489 4.51324 12.1333 4.63288C12.0139 4.74557 11.8559 4.8082 11.6917 4.80788C11.6101 4.80936 11.5291 4.79466 11.4533 4.76462C11.3775 4.73458 11.3084 4.6898 11.25 4.63288L10.6583 4.04121ZM16.8417 8.45788C16.9587 8.57507 17.0245 8.73392 17.0245 8.89955C17.0245 9.06517 16.9587 9.22402 16.8417 9.34121C16.7843 9.40002 16.7155 9.44659 16.6396 9.4781C16.5637 9.50961 16.4822 9.52541 16.4 9.52455C16.3179 9.52493 16.2365 9.50892 16.1607 9.47743C16.0848 9.44595 16.016 9.39964 15.9583 9.34121L15.3667 8.75788C15.2511 8.63824 15.1865 8.47839 15.1865 8.31205C15.1865 8.1457 15.2511 7.98585 15.3667 7.86621C15.4839 7.74917 15.6427 7.68343 15.8083 7.68343C15.974 7.68343 16.1328 7.74917 16.25 7.86621L16.8417 8.45788ZM10.8333 6.87454H10C9.83425 6.87454 9.67528 6.8087 9.55807 6.69149C9.44086 6.57428 9.37501 6.4153 9.37501 6.24954C9.37501 6.08378 9.44086 5.92481 9.55807 5.8076C9.67528 5.69039 9.83425 5.62454 10 5.62454H10.8333C10.9991 5.62454 11.1581 5.69039 11.2753 5.8076C11.3925 5.92481 11.4583 6.08378 11.4583 6.24954C11.4583 6.4153 11.3925 6.57428 11.2753 6.69149C11.1581 6.8087 10.9991 6.87454 10.8333 6.87454ZM18.125 6.24954C18.1228 6.41463 18.0563 6.57235 17.9396 6.6891C17.8228 6.80585 17.6651 6.87239 17.5 6.87454H16.6667C16.5009 6.87454 16.3419 6.8087 16.2247 6.69149C16.1075 6.57428 16.0417 6.4153 16.0417 6.24954C16.0417 6.08378 16.1075 5.92481 16.2247 5.8076C16.3419 5.69039 16.5009 5.62454 16.6667 5.62454H17.5C17.6651 5.6267 17.8228 5.69324 17.9396 5.80999C18.0563 5.92673 18.1228 6.08446 18.125 6.24954ZM14.375 9.16621V9.99954C14.375 10.1653 14.3092 10.3243 14.1919 10.4415C14.0747 10.5587 13.9158 10.6245 13.75 10.6245C13.5842 10.6245 13.4253 10.5587 13.3081 10.4415C13.1909 10.3243 13.125 10.1653 13.125 9.99954V9.16621C13.125 9.00045 13.1909 8.84148 13.3081 8.72427C13.4253 8.60706 13.5842 8.54121 13.75 8.54121C13.9158 8.54121 14.0747 8.60706 14.1919 8.72427C14.3092 8.84148 14.375 9.00045 14.375 9.16621ZM13.125 3.33288V2.49954C13.125 2.33378 13.1909 2.17481 13.3081 2.0576C13.4253 1.94039 13.5842 1.87454 13.75 1.87454C13.9158 1.87454 14.0747 1.94039 14.1919 2.0576C14.3092 2.17481 14.375 2.33378 14.375 2.49954V3.33288C14.375 3.49864 14.3092 3.65761 14.1919 3.77482C14.0747 3.89203 13.9158 3.95788 13.75 3.95788C13.5842 3.95788 13.4253 3.89203 13.3081 3.77482C13.1909 3.65761 13.125 3.49864 13.125 3.33288Z" fill="#F95272"/>
</svg>
