<svg width="48" height="48" viewBox="0 0 48 48" fill="none" xmlns="http://www.w3.org/2000/svg">
<circle cx="24" cy="24" r="23.25" stroke="white" stroke-width="1.5"/>
<path d="M25.1266 13.3606C24.4066 12.4357 23.3286 11.9405 22.1545 12.0057C19.7584 12.1335 17.6192 13.0529 15.7986 14.7372C13.7001 16.6711 12.3761 19.4469 12.0711 22.5536C11.6502 26.9366 13.1151 31.0923 15.9902 33.6705C18.0864 35.5451 20.7906 36.518 23.5243 36.518C25.3142 36.518 27.1172 36.1006 28.7688 35.2461C31.469 33.8491 34.6689 30.8444 34.8013 24.4866C34.8062 24.401 34.8067 24.3144 34.8094 24.2283C34.8094 24.1798 34.8139 24.1354 34.8139 24.0865V24.0679C34.8139 24.0357 34.8167 24.004 34.8167 23.9718C34.8167 23.9098 34.8017 23.8518 34.7791 23.7978C34.7772 23.7933 34.7741 23.7901 34.7718 23.7861C34.7505 23.7398 34.7229 23.6977 34.6875 23.6615C34.6776 23.651 34.6653 23.6433 34.6544 23.6338C34.6241 23.6075 34.5924 23.5844 34.5557 23.5672C34.5371 23.5581 34.5181 23.5532 34.4981 23.5468C34.4768 23.54 34.4582 23.5282 34.436 23.5246C34.4197 23.5219 34.4048 23.5255 34.3885 23.5246C34.3789 23.5242 34.3703 23.5192 34.3608 23.5192C34.3513 23.5192 34.3431 23.5242 34.3341 23.5246C34.2947 23.5273 34.2575 23.535 34.2213 23.5473C34.2049 23.5527 34.1882 23.5554 34.1728 23.5627C34.127 23.584 34.0849 23.6112 34.0486 23.6465C34.0332 23.6615 34.0237 23.68 34.0101 23.6973C33.9947 23.7172 33.977 23.7349 33.9648 23.7571C33.5398 24.3982 29.7924 28.7215 26.5671 28.3028C24.8398 28.0794 23.4804 26.4976 22.5275 23.6007C22.3974 23.2043 22.4717 22.7742 22.7273 22.4503L22.8079 22.3474C23.0504 22.0397 23.4029 21.8843 23.7831 21.8911C24.1977 21.9051 24.5747 22.1177 24.8176 22.4743C25.4642 23.4222 26.4384 23.7471 27.5626 23.3891C28.5962 23.0602 29.419 22.2087 29.7625 21.1122C30.1608 19.8425 30.1064 18.726 29.6062 17.8832C29.1109 17.049 28.2015 16.4957 26.9037 16.2388C26.5548 16.1695 26.2046 16.1228 25.8543 16.0943C25.9911 15.1359 25.7378 14.1476 25.1261 13.3615L25.1266 13.3606ZM28.3533 34.4418C24.5094 36.4301 19.7847 35.8483 16.5956 32.9958C13.9339 30.6092 12.58 26.7377 12.9733 22.6415C13.2565 19.7573 14.4781 17.1868 16.4134 15.4028C18.076 13.8653 20.0239 13.0266 22.2039 12.9106C23.0776 12.8581 23.8764 13.2301 24.4111 13.917C24.8923 14.5355 25.0831 15.3199 24.9467 16.068C22.6806 16.1097 20.4784 16.9824 18.8041 18.562C16.9336 20.3274 16.0994 22.5925 16.3926 25.1133C16.6966 27.7319 18.2504 30.157 20.5478 31.6011C21.8509 32.4204 23.5329 33.1209 25.475 33.1209C27.3111 33.1209 29.3801 32.4938 31.5791 30.7479C32.1274 30.3124 32.6113 29.8163 33.0291 29.2743C32.1401 31.5576 30.5804 33.289 28.3533 34.4418ZM28.8273 18.3449C29.2885 19.1225 29.12 20.1312 28.8979 20.8403C28.6424 21.6555 28.0397 22.2853 27.2871 22.5255C26.5367 22.7643 25.9902 22.5848 25.5661 21.9631C25.1646 21.3745 24.5094 21.0089 23.8139 20.9853C23.1496 20.9626 22.5152 21.254 22.0956 21.7869L22.015 21.8897C21.5714 22.453 21.4404 23.1984 21.6656 23.8839C22.8329 27.4328 24.6291 29.234 27.0048 29.2372H27.012C29.7086 29.2372 32.3825 26.8764 33.7853 25.357C33.4528 27.1967 32.4686 28.8837 31.0145 30.0383C26.9065 33.3012 23.3168 32.2722 21.0294 30.834C18.9623 29.5349 17.5648 27.3571 17.2921 25.0091C17.0301 22.752 17.7479 20.805 19.4258 19.2213C20.9714 17.7627 23.0164 16.9688 25.1134 16.9688C25.6508 16.9688 26.1914 17.0209 26.7275 17.1274C27.7624 17.3322 28.4688 17.7414 28.8273 18.3449Z" fill="white"/>
</svg>
