<svg width="48" height="48" viewBox="0 0 48 48" fill="none" xmlns="http://www.w3.org/2000/svg">
<circle cx="24" cy="24" r="23.25" stroke="white" stroke-width="1.5"/>
<path d="M18.9316 19.4406C19.1616 20.7182 19.7725 21.6521 20.5318 22.3026C21.5635 23.1864 22.8664 23.55 23.8675 23.55C23.9122 23.55 23.9568 23.55 23.9993 23.5482C24.0421 23.55 24.085 23.55 24.1274 23.55C25.129 23.55 26.4332 23.1864 27.465 22.3026C28.226 21.6521 28.8388 20.7182 29.0688 19.4406C29.099 19.2732 29.1239 19.1004 29.1401 18.9218C29.1631 18.6796 29.1631 18.4373 29.1419 18.1932C28.8978 15.2351 25.692 12.3054 24.6476 11.427C24.4665 11.2739 24.237 11.1899 23.9998 11.1899C23.7627 11.1899 23.5332 11.2739 23.352 11.427C22.3084 12.3054 19.1026 15.2351 18.8585 18.1932C18.8372 18.4373 18.8372 18.6796 18.8603 18.9218C18.8761 19.1 18.9013 19.2728 18.9316 19.4406ZM20.1095 18.1932C20.3662 15.8446 23.105 13.2907 23.9996 12.5156C24.896 13.2907 27.6349 15.8446 27.8916 18.1932C27.9146 18.3998 27.9182 18.6047 27.8988 18.8063C27.8797 19.0199 27.8452 19.2319 27.7955 19.4406C27.245 21.7752 25.0246 22.3026 24.1102 22.3026C24.0799 22.3026 24.0515 22.3026 24.0245 22.3008H23.9762C23.9496 22.3026 23.9212 22.3026 23.8906 22.3026C22.9765 22.3026 20.756 21.7752 20.2052 19.4406C20.1556 19.2319 20.121 19.0199 20.1019 18.8063C20.0831 18.6022 20.0856 18.3967 20.1095 18.1932Z" fill="white"/>
<path d="M10.2312 21.9239L21.7386 28.1576C22.2394 28.4291 22.7668 28.7959 23.3161 28.9691C24.2388 29.2603 24.9779 28.8531 25.749 28.4355L32.2024 24.9399L37.769 21.9242C38.475 21.5415 37.8461 20.4644 37.1394 20.8471L25.9322 26.9181C25.4527 27.1781 24.9667 27.5129 24.4591 27.7163C23.7769 27.9895 23.2124 27.5381 22.64 27.2281L16.1186 23.6954L10.8608 20.8471C10.1549 20.4644 9.52452 21.5412 10.2312 21.9239Z" fill="white"/>
<path d="M37.1394 24.8475L25.9322 30.9181C25.4527 31.1781 24.9667 31.5129 24.4591 31.7163C23.7769 31.9895 23.2124 31.5384 22.64 31.2281L16.1186 27.6954L10.8608 24.8471C10.1549 24.4644 9.52452 25.5412 10.2312 25.9242L21.7386 32.158C22.2394 32.4294 22.7668 32.7959 23.3161 32.9691C24.2388 33.2603 24.9779 32.8531 25.749 32.4355L32.2024 28.9399L37.769 25.9246C38.4754 25.5423 37.8461 24.4648 37.1394 24.8475Z" fill="white"/>
<path d="M37.139 28.5897L25.9322 34.6607C25.4527 34.9206 24.9667 35.2554 24.4591 35.4588C23.7769 35.7321 23.2124 35.2806 22.64 34.9707L16.1186 31.438L10.8608 28.5897C10.1549 28.207 9.52452 29.2837 10.2312 29.6664L21.7386 35.9002C22.2394 36.1716 22.7668 36.5381 23.3161 36.7113C24.2388 37.0021 24.9779 36.5953 25.749 36.1777L32.2024 32.6821L37.769 29.6664C38.475 29.2845 37.8457 28.207 37.139 28.5897Z" fill="white"/>
</svg>
