<svg width="48" height="48" viewBox="0 0 48 48" fill="none" xmlns="http://www.w3.org/2000/svg">
<circle cx="24" cy="24" r="23.25" stroke="white" stroke-width="1.5"/>
<path fill-rule="evenodd" clip-rule="evenodd" d="M11.4623 30.3431H35.1613C35.302 30.343 35.4369 30.287 35.5364 30.1876C35.6359 30.0881 35.6918 29.9531 35.6919 29.8124C35.6918 29.6718 35.6358 29.5369 35.5363 29.4374C35.4369 29.338 35.302 29.282 35.1613 29.2819H11.4623C11.3216 29.282 11.1867 29.3379 11.0872 29.4374C10.9877 29.5369 10.9317 29.6718 10.9316 29.8124C10.9316 30.1053 11.1694 30.3431 11.4623 30.3431ZM12.0981 33.5439C13.0074 33.3641 13.9149 32.9944 14.8242 32.9944C15.2459 32.9944 15.6662 33.1273 16.0879 33.2523C16.6093 33.407 17.1321 33.5541 17.6535 33.5541C18.1748 33.5541 18.6975 33.407 19.2189 33.2523C19.6406 33.1273 20.0608 32.9944 20.4826 32.9944C20.9043 32.9944 21.3246 33.1273 21.7463 33.2523C22.2676 33.407 22.7904 33.5541 23.3117 33.5541C23.833 33.5541 24.3559 33.407 24.8772 33.2523C25.299 33.1273 25.7192 32.9944 26.141 32.9944C26.5627 32.9944 26.9828 33.1273 27.4046 33.2523C27.9259 33.407 28.4488 33.5541 28.9701 33.5541C29.4914 33.5541 30.0143 33.407 30.5356 33.2523C30.9574 33.1273 31.3775 32.9944 31.7992 32.9944C32.7087 32.9944 33.6161 33.3641 34.5255 33.5439C34.6619 33.5674 34.8022 33.5366 34.9162 33.4581C35.0303 33.3796 35.1092 33.2597 35.1361 33.1238C35.1629 32.988 35.1356 32.847 35.06 32.731C34.9844 32.615 34.8665 32.5332 34.7314 32.5029C33.7547 32.3097 32.7759 31.9333 31.7992 31.9333C31.2779 31.9333 30.7552 32.0804 30.2338 32.235C29.8121 32.3602 29.3919 32.4928 28.9701 32.4928C28.5484 32.4928 28.1281 32.3602 27.7064 32.235C27.185 32.0804 26.6623 31.9333 26.141 31.9333C25.6196 31.9333 25.0968 32.0804 24.5754 32.235C24.1537 32.3602 23.7335 32.4928 23.3117 32.4928C22.89 32.4928 22.4699 32.3602 22.0481 32.235C21.5268 32.0804 21.0039 31.9333 20.4826 31.9333C19.9613 31.9333 19.4384 32.0804 18.9171 32.235C18.4953 32.3602 18.0752 32.4928 17.6535 32.4928C17.2317 32.4928 16.8115 32.3602 16.3897 32.235C15.8684 32.0804 15.3455 31.9333 14.8242 31.9333C13.8475 31.9333 12.8689 32.3097 11.8922 32.5029C11.7571 32.5332 11.6391 32.615 11.5635 32.731C11.4879 32.847 11.4606 32.988 11.4875 33.1238C11.5144 33.2597 11.5933 33.3796 11.7073 33.4581C11.8214 33.5366 11.9616 33.5674 12.0981 33.5439ZM14.1595 35.9447H16.7558C16.8965 35.9446 17.0314 35.8886 17.1309 35.7891C17.2304 35.6896 17.2863 35.5547 17.2863 35.414C17.2863 35.1212 17.0486 34.8834 16.7558 34.8834H14.1595C14.0188 34.8835 13.8839 34.9395 13.7844 35.039C13.685 35.1384 13.629 35.2734 13.629 35.414C13.629 35.7069 13.8667 35.9447 14.1595 35.9447ZM19.3956 35.9447H21.9918C22.2847 35.9447 22.5225 35.7069 22.5225 35.414C22.5225 35.1212 22.2847 34.8834 21.9918 34.8834H19.3956C19.2549 34.8835 19.12 34.9394 19.0205 35.0389C18.921 35.1384 18.865 35.2733 18.865 35.414C18.865 35.7069 19.1027 35.9447 19.3956 35.9447ZM24.6317 35.9447H27.228C27.3686 35.9446 27.5035 35.8886 27.603 35.7891C27.7025 35.6896 27.7584 35.5547 27.7585 35.414C27.7585 35.1212 27.5207 34.8834 27.228 34.8834H24.6317C24.491 34.8835 24.3561 34.9394 24.2566 35.0389C24.1571 35.1384 24.1012 35.2733 24.1011 35.414C24.1011 35.7069 24.3388 35.9447 24.6317 35.9447ZM29.8677 35.9447H32.464C32.7568 35.9447 32.9946 35.7069 32.9946 35.414C32.9946 35.1212 32.7568 34.8834 32.464 34.8834H29.8677C29.727 34.8835 29.5921 34.9394 29.4926 35.0389C29.3931 35.1384 29.3372 35.2733 29.3371 35.414C29.3371 35.7069 29.5748 35.9447 29.8677 35.9447ZM17.5921 12.9849L16.2224 16.6864L12.5209 18.0561C12.3464 18.1208 12.1959 18.2373 12.0896 18.39C11.9833 18.5427 11.9264 18.7244 11.9264 18.9104C11.9264 19.0965 11.9833 19.2781 12.0896 19.4308C12.1959 19.5836 12.3464 19.7001 12.5209 19.7647L16.2224 21.1344L17.5921 24.836C17.6566 25.0105 17.7731 25.1612 17.9259 25.2675C18.0786 25.3739 18.2603 25.4309 18.4464 25.4309C18.6325 25.4309 18.8142 25.3739 18.9669 25.2675C19.1197 25.1612 19.2362 25.0105 19.3007 24.836L20.6704 21.1344L24.372 19.7647C24.5465 19.7002 24.6971 19.5837 24.8035 19.4309C24.9098 19.2782 24.9669 19.0965 24.9668 18.9104C24.9668 18.7242 24.9098 18.5426 24.8034 18.3898C24.697 18.2371 24.5464 18.1206 24.3718 18.0561L20.6704 16.6864L19.3007 12.9849C19.2361 12.8104 19.1195 12.6599 18.9668 12.5537C18.814 12.4474 18.6324 12.3904 18.4464 12.3905C18.2603 12.3905 18.0787 12.4475 17.926 12.5537C17.7732 12.66 17.6567 12.8104 17.5921 12.9849ZM18.4464 13.7339L19.7599 17.2835C19.7865 17.3553 19.8282 17.4204 19.8823 17.4745C19.9364 17.5286 20.0016 17.5703 20.0733 17.5969L23.6229 18.9104L20.0733 20.2239C20.0016 20.2505 19.9364 20.2923 19.8823 20.3464C19.8282 20.4005 19.7865 20.4657 19.7599 20.5375L18.4464 24.0871L17.1329 20.5375C17.1063 20.4657 17.0646 20.4005 17.0105 20.3464C16.9563 20.2922 16.8912 20.2505 16.8194 20.2239L13.2697 18.9104L16.8194 17.5969C16.8911 17.5704 16.9563 17.5286 17.0104 17.4745C17.0645 17.4204 17.1063 17.3553 17.1329 17.2835L18.4464 13.7339ZM25.9971 20.4584L25.2901 22.3691L23.3793 23.0762C23.2048 23.1408 23.0541 23.2573 22.9478 23.41C22.8414 23.5628 22.7844 23.7444 22.7844 23.9306C22.7844 24.1167 22.8414 24.2984 22.9478 24.4511C23.0541 24.6039 23.2048 24.7204 23.3793 24.7849L25.2901 25.4919L25.9971 27.4027C26.0616 27.5772 26.1781 27.7278 26.3309 27.8342C26.4836 27.9406 26.6653 27.9976 26.8514 27.9976C27.0375 27.9976 27.2192 27.9406 27.3719 27.8342C27.5247 27.7278 27.6412 27.5772 27.7057 27.4027L28.4129 25.4919L30.3236 24.7849C30.4981 24.7202 30.6486 24.6037 30.7548 24.451C30.8611 24.2982 30.9181 24.1166 30.9181 23.9306C30.9181 23.7445 30.8611 23.5629 30.7548 23.4102C30.6486 23.2574 30.4981 23.1409 30.3236 23.0762L28.4129 22.3691L27.7057 20.4584C27.6412 20.2838 27.5247 20.1332 27.3719 20.0268C27.2192 19.9204 27.0375 19.8634 26.8514 19.8634C26.6653 19.8634 26.4836 19.9204 26.3309 20.0268C26.1781 20.1332 26.0616 20.2838 25.9971 20.4584ZM26.8514 21.2074L27.5022 22.9662C27.5288 23.038 27.5706 23.1032 27.6247 23.1573C27.6788 23.2114 27.744 23.2532 27.8158 23.2797L29.5746 23.9306L27.8158 24.5814C27.744 24.608 27.6788 24.6497 27.6247 24.7038C27.5706 24.758 27.5288 24.8231 27.5022 24.8949L26.8514 26.6538L26.2006 24.8949C26.174 24.8231 26.1323 24.758 26.0781 24.7038C26.024 24.6497 25.9588 24.608 25.8871 24.5814L24.1282 23.9306L25.8871 23.2797C25.9588 23.2532 26.024 23.2114 26.0781 23.1573C26.1323 23.1032 26.174 23.038 26.2006 22.9662L26.8514 21.2074ZM29.0279 11.3237L28.3209 13.2345L26.4102 13.9415C26.2356 14.0061 26.0851 14.1226 25.9788 14.2753C25.8725 14.428 25.8155 14.6097 25.8155 14.7958C25.8155 14.9819 25.8725 15.1635 25.9788 15.3163C26.0851 15.469 26.2356 15.5855 26.4102 15.6501L28.3208 16.3572L29.0279 18.268C29.0926 18.4425 29.2091 18.5929 29.3618 18.6992C29.5146 18.8055 29.6962 18.8625 29.8822 18.8625C30.0683 18.8625 30.2499 18.8055 30.4027 18.6992C30.5554 18.5929 30.6719 18.4425 30.7366 18.268L31.4437 16.3572L33.3544 15.6501C33.529 15.5856 33.6796 15.4691 33.786 15.3163C33.8924 15.1636 33.9494 14.9819 33.9494 14.7958C33.9494 14.6097 33.8924 14.428 33.786 14.2752C33.6796 14.1225 33.529 14.006 33.3544 13.9415L31.4437 13.2345L30.7366 11.3237C30.6721 11.1491 30.5556 10.9984 30.4029 10.892C30.2501 10.7856 30.0684 10.7285 29.8822 10.7285C29.6961 10.7285 29.5144 10.7856 29.3616 10.892C29.2089 10.9984 29.0924 11.1491 29.0279 11.3237ZM29.8822 12.0726L30.5331 13.8314C30.5596 13.9032 30.6014 13.9684 30.6555 14.0225C30.7096 14.0766 30.7748 14.1184 30.8466 14.1449L32.6054 14.7958L30.8466 15.4466C30.7748 15.4732 30.7096 15.5149 30.6555 15.5691C30.6014 15.6232 30.5596 15.6884 30.5331 15.7601L29.8822 17.519L29.2314 15.7601C29.2049 15.6884 29.1631 15.6232 29.109 15.5691C29.0548 15.5149 28.9897 15.4732 28.9179 15.4466L27.1591 14.7958L28.9179 14.1449C28.9897 14.1184 29.0549 14.0766 29.109 14.0225C29.1631 13.9684 29.2049 13.9032 29.2314 13.8314L29.8822 12.0726Z" fill="white"/>
</svg>
