<svg width="121" height="30" viewBox="0 0 121 30" fill="none" xmlns="http://www.w3.org/2000/svg">
<path d="M69.5644 8.11959C72.036 7.83952 75.1001 8.69416 77.0255 10.298C81.5381 14.0567 81.9746 21.9785 78.2616 26.4282C76.3878 28.6742 73.9268 29.6785 71.0592 29.9452C68.6656 30.2414 65.2964 29.3133 63.4625 27.7513C59.0192 23.9676 58.8948 15.8976 62.5673 11.5593C64.4587 9.32453 66.7179 8.3793 69.5644 8.11959ZM71.0486 26.6444C75.4503 26.0227 77.3757 23.0021 77.3681 18.6893C77.3605 14.3812 74.3257 10.9286 69.8424 11.4068C65.2037 11.6734 63.0384 15.7179 63.364 19.9958C63.7136 24.5894 66.4404 26.9276 71.0134 26.6467C71.0251 26.646 71.0369 26.6453 71.0486 26.6444Z" fill="#4B4947"/>
<path d="M40.5408 8.39833C40.9056 8.37334 41.2645 8.36824 41.6302 8.36982C44.5262 8.38261 47.4228 8.35339 50.3186 8.38015C51.0351 8.38672 51.7452 8.50704 52.4428 8.65335C54.7036 9.12743 56.5099 10.8075 56.8207 13.1451C57.1693 15.7748 56.0375 17.5941 53.698 18.7189C54.0171 18.8448 54.3273 18.9702 54.6386 19.1152C57.5017 20.4488 58.0094 23.7268 56.6898 26.4029C55.6452 28.1145 54.012 29.0809 52.0443 29.4292C49.4848 29.8823 46.7559 29.6 44.1571 29.6822C43.058 29.7169 41.9046 29.6745 40.8064 29.6531C40.4902 29.6453 40.2482 29.4717 40.0551 29.2287C39.879 28.3229 39.9452 25.5382 39.945 24.5042L39.945 11.0883C39.9451 10.5205 39.9406 9.94964 39.9521 9.3814C39.9632 8.8368 40.1008 8.68814 40.5408 8.39833ZM52.8853 25.4079C53.6468 24.6412 53.9258 23.9832 53.9389 22.8984C53.9836 19.1841 49.3818 19.7542 46.8802 19.7183C45.7251 19.7016 44.5303 19.7078 43.3788 19.7257L43.3498 19.7261L43.3518 26.3843L46.7887 26.3844C48.4443 26.3868 51.6207 26.5785 52.8853 25.4079ZM43.3522 18.0677L46.8155 18.0735C48.633 18.0751 50.9223 18.2621 52.4173 17.0758C53.1389 16.3712 53.4338 15.6932 53.4491 14.6945C53.4893 12.0867 51.094 11.6258 49.0516 11.6105L43.3497 11.6176L43.3522 18.0677Z" fill="#4B4947"/>
<path d="M84.9307 8.39262C86.4291 8.29811 88.2506 8.35279 89.7736 8.37062C93.4731 8.41398 98.624 7.7294 100.751 11.5266C101.463 12.7995 101.625 14.7926 101.195 16.1833C100.662 17.9644 99.3209 18.9336 97.7575 19.7632C100.468 21.0076 100.716 23.8054 101.355 26.4202C101.615 27.4865 101.852 28.6053 102.055 29.6812C100.866 29.6667 99.6553 29.6783 98.4638 29.6784C98.3283 29.0845 98.1869 28.4861 98.0766 27.8874C97.6161 26.0681 97.2946 23.1338 96.0503 21.7145C95.1169 20.6506 92.7087 20.8191 91.3511 20.8189L87.701 20.8212L87.6992 29.0157C87.2005 29.8491 86.8116 29.6568 85.9369 29.6942C85.2147 29.725 84.3488 29.6962 84.3142 28.7609C84.2485 26.9897 84.2889 25.2085 84.2924 23.4344L84.293 10.9327C84.2924 10.3664 84.2655 9.59827 84.3376 9.0434C84.3734 8.76756 84.7055 8.53066 84.9307 8.39262ZM87.7039 19.1451L91.0572 19.1464C93.0448 19.1505 95.2753 19.322 96.8916 17.9654C97.7305 17.1242 97.9728 16.3915 97.9962 15.2159C98.0133 14.3365 97.8009 13.4448 97.1479 12.8092C95.7165 11.4166 92.9797 11.6068 91.1089 11.6093L87.7027 11.6154L87.7039 19.1451Z" fill="#4B4947"/>
<path d="M26.1101 8.39278C26.7324 8.36526 28.1677 8.24142 28.5053 8.92676C29.2225 10.383 29.8126 11.9799 30.4283 13.4934L35.3398 25.5678C35.7849 26.6641 36.4374 28.0622 36.6995 29.1882C36.8688 29.9159 34.1132 29.6662 33.7215 29.6089C33.0171 29.0798 32.7663 28.0991 32.4445 27.2901L31.2114 24.1782L22.5899 24.176C22.578 24.2139 22.5657 24.2516 22.5529 24.2892C22.0266 25.8595 21.2217 27.567 20.5996 29.1088C20.3585 29.7066 19.7546 29.6865 19.1962 29.6683C18.6255 29.6497 17.4201 29.8708 17.1152 29.2319C17.177 28.8929 17.2999 28.512 17.4293 28.1923C19.1904 23.8392 20.964 19.4887 22.7338 15.1395L24.3561 11.1514C24.7835 10.0967 25.0227 8.86551 26.1101 8.39278ZM23.2608 22.519L30.5059 22.5161C29.7859 20.4882 28.8079 18.3535 28.0452 16.3203C27.9153 15.9738 27.0251 13.7185 26.8941 13.5343C25.713 16.4816 24.5054 19.6144 23.2608 22.519Z" fill="#4B4947"/>
<path d="M120.148 28.8873C119.728 29.8263 119.25 29.6758 118.321 29.6777L109.819 29.6793C108.47 29.6796 107.111 29.7009 105.766 29.6517C105.415 29.589 105.105 29.4426 105.049 29.0806C104.893 28.0789 104.952 27.0538 104.952 26.0381L104.951 21.6241C104.95 17.6669 104.948 13.7075 104.953 9.75037C104.953 9.3119 104.929 8.88411 105.277 8.57588C105.413 8.45496 105.975 8.38292 106.173 8.38034C108.048 8.35553 109.939 8.37195 111.814 8.36978C114.144 8.36702 116.466 8.38063 118.795 8.36075C119.088 8.36116 119.548 8.45197 119.745 8.69538C120.154 9.19973 119.995 10.4024 119.977 11.0215C119.799 11.2737 119.536 11.5926 119.197 11.6022C118.096 11.6331 116.987 11.6171 115.884 11.6164L108.345 11.6188L108.348 18.0755L114.27 18.0721C115.289 18.0716 116.306 18.062 117.327 18.0831C117.84 18.0937 117.981 18.3152 118.018 18.8126C118.049 19.2466 117.971 19.7038 117.435 19.7151C116.484 19.735 115.527 19.7243 114.574 19.7234L108.345 19.728L108.347 26.3853C109.94 26.3837 118.946 26.2422 119.506 26.4608C119.868 26.6025 119.998 26.8622 120.148 27.2044V28.8873Z" fill="#4B4947"/>
<path d="M0 9.21426C0.316958 8.20426 0.860436 8.39381 1.74731 8.3602C2.90174 8.31649 3.44297 8.4171 3.41583 9.70646C3.43212 11.5585 3.42588 13.4058 3.42557 15.2554L3.42515 26.3862L10.5304 26.382C11.6012 26.3822 12.6719 26.3763 13.7439 26.3873C14.0563 26.4022 14.4511 26.6041 14.4307 26.9548C14.3982 27.5128 13.6029 29.5836 13.0009 29.6085C9.1401 29.7683 5.24326 29.6393 1.37566 29.6751C0.648318 29.6818 0.167589 29.6031 0 28.7973V9.21426Z" fill="#4B4947"/>
<path d="M114.748 0H115.04C115.466 0.308508 116.394 1.14852 116.555 1.63956C116.584 1.72812 116.572 1.80942 116.528 1.88899C116.304 2.29649 112.049 5.97548 111.403 6.48054C111.247 6.60239 111.085 6.72506 110.892 6.78026C110.555 6.72852 110.214 6.28923 110.005 6.04031C109.799 5.79401 109.935 5.469 110.12 5.2626C111.177 4.0768 112.2 2.86323 113.24 1.6617C113.689 1.14931 114.239 0.427808 114.748 0Z" fill="#F95272"/>
</svg>
